<?xml version="1.0" encoding="UTF-8" standalone="no"?>
<!-- Created with Inkscape (http://www.inkscape.org/) -->

<svg
   xmlns:dc="http://purl.org/dc/elements/1.1/"
   xmlns:cc="http://creativecommons.org/ns#"
   xmlns:rdf="http://www.w3.org/1999/02/22-rdf-syntax-ns#"
   xmlns:svg="http://www.w3.org/2000/svg"
   xmlns="http://www.w3.org/2000/svg"
   version="1.1"
   width="347.01199"
   height="209.58"
   viewBox="0 0 347.01199 209.58001"
   id="Layer_1"
   xml:space="preserve"><metadata
   id="metadata3104"><rdf:RDF><cc:Work
       rdf:about=""><dc:format>image/svg+xml</dc:format><dc:type
         rdf:resource="http://purl.org/dc/dcmitype/StillImage" /><dc:title></dc:title></cc:Work></rdf:RDF></metadata><defs
   id="defs3102" />
<g
   transform="translate(-22.043004,-26.171)"
   id="g3072">
	<path
   d="m 39.449,204.802 h -6.911 v -3.708 H 50.86 v 3.708 h -6.983 v 20.553 H 39.45 v -20.553 z"
   id="path3074" />
	<path
   d="m 98.452,201.094 v 9.719 h 10.259 v -9.719 h 4.428 v 24.261 h -4.428 v -10.69 H 98.452 v 10.69 h -4.427 v -24.261 h 4.427 z"
   id="path3076" />
	<path
   d="m 162.964,201.094 v 24.261 h -4.427 v -24.261 h 4.427 z"
   id="path3078" />
	<path
   d="m 208.324,225.354 v -24.261 h 5.076 l 6.264,10.402 c 1.583,2.7 3.023,5.508 4.139,8.136 h 0.072 c -0.324,-3.24 -0.396,-6.372 -0.396,-10.079 v -8.459 h 4.104 v 24.261 h -4.607 l -6.335,-10.69 c -1.548,-2.664 -3.132,-5.615 -4.319,-8.351 l -0.145,0.035 c 0.181,3.132 0.252,6.336 0.252,10.331 v 8.675 h -4.105 z"
   id="path3080" />
	<path
   d="m 292.454,224.239 c -1.548,0.575 -4.571,1.367 -7.775,1.367 -4.104,0 -7.235,-1.044 -9.538,-3.239 -2.16,-2.052 -3.384,-5.256 -3.384,-8.927 0.036,-7.703 5.472,-12.599 13.498,-12.599 2.988,0 5.327,0.612 6.443,1.152 l -0.972,3.563 c -1.332,-0.612 -2.952,-1.044 -5.508,-1.044 -5.184,0 -8.818,3.06 -8.818,8.711 0,5.507 3.383,8.782 8.423,8.782 1.62,0 2.771,-0.216 3.348,-0.468 v -6.083 h -4.283 v -3.491 h 8.566 v 12.276 z"
   id="path3082" />
	<path
   d="m 337.24,220.531 c 1.404,0.828 3.6,1.548 5.867,1.548 2.808,0 4.392,-1.332 4.392,-3.312 0,-1.836 -1.224,-2.916 -4.283,-4.031 -4.031,-1.44 -6.587,-3.563 -6.587,-7.056 0,-3.995 3.312,-6.982 8.603,-6.982 2.628,0 4.535,0.575 5.795,1.224 l -1.043,3.563 c -0.9,-0.468 -2.592,-1.152 -4.859,-1.152 -2.809,0 -3.996,1.477 -3.996,2.916 0,1.872 1.404,2.735 4.644,3.995 4.212,1.584 6.228,3.708 6.228,7.199 0,3.924 -2.952,7.308 -9.18,7.308 -2.591,0 -5.255,-0.72 -6.587,-1.548 l 1.006,-3.672 z"
   id="path3084" />
</g>
<path
   d="m 181.02799,10 c -0.186,8.595 -6.055,15.498 -13.284,15.498 -7.229,0 -13.099,-6.903 -13.284,-15.497 H 106.806 L 167.90199,161.478 228.98999,10 h -47.962 z"
   id="path3086"
   style="fill:#be1622" />
<g
   transform="translate(-22.043004,-26.171)"
   id="g3088">
	<g
   id="g3090">
		<g
   id="g3092">
			<g
   id="g3094">
				<path
   d="m 109.748,136.813 c 0,-7.249 6.942,-13.134 15.57,-13.287 v -22.884 c -8.627,-0.153 -15.57,-6.037 -15.57,-13.287 0,-7.25 6.942,-13.134 15.57,-13.288 V 36.171 H 32.043 v 151.477 h 93.274 v -37.551 c -8.628,-0.153 -15.569,-6.034 -15.569,-13.284 z"
   id="path3096"
   style="fill:#be1622" />
			</g>
		</g>
	</g>
</g>
<path
   d="m 273.69199,10 c -34.979,0 -63.328,33.91 -63.328,75.74 0,41.827 28.35,75.737 63.328,75.737 34.971,0 63.32,-33.91 63.32,-75.737 10e-4,-41.829 -28.349,-75.74 -63.32,-75.74 z m 11.321,82.926 c -8.422,0 -15.25,-8.167 -15.25,-18.241 0,-10.074 6.828,-18.241 15.25,-18.241 8.424,0 15.25,8.167 15.25,18.241 0,10.074 -6.827,18.241 -15.25,18.241 z"
   id="path3098"
   style="fill:#be1622" />
</svg>
